<?xml version="1.0" encoding="UTF-8" standalone="no"?>
<!-- Created with Inkscape (http://www.inkscape.org/) -->

<svg
   width="48.373226mm"
   height="82.058708mm"
   viewBox="0 0 48.373226 82.058708"
   version="1.1"
   id="svg1"
   xml:space="preserve"
   xmlns="http://www.w3.org/2000/svg"
   xmlns:svg="http://www.w3.org/2000/svg"><defs
     id="defs1" /><g
     id="layer1"
     transform="translate(-87.785257,-98.878835)"><g
       id="g2"><path
         style="fill:#000000"
         d="m 104.20017,180.46662 c -0.47395,-0.20599 -1.11339,-0.80104 -1.42096,-1.32234 -0.31797,-0.53891 -0.94658,-1.10966 -1.45709,-1.32297 -1.16105,-0.48511 -1.30024,-0.91251 -0.78738,-2.41767 0.38962,-1.14348 0.38778,-1.25836 -0.025,-1.5602 -0.38554,-0.2819 -0.40357,-0.46609 -0.13377,-1.36659 0.36684,-1.22441 0.1628,-2.13138 -0.879718,-3.9103 -0.64708,-1.10415 -0.70724,-1.41348 -0.58095,-2.98681 0.18871,-2.35096 -0.0662,-2.97413 -1.21681,-2.97413 -0.89421,0 -0.89421,0 -1.05362,-1.90142 -0.10013,-1.1944 -0.29419,-1.97684 -0.5219,-2.10427 -0.19937,-0.11157 -0.57662,-0.95257 -0.83833,-1.8689 -0.54839,-1.92001 -1.12971,-3.34633 -1.59564,-3.915 -0.17884,-0.21828 -0.45703,-1.28984 -0.6182,-2.38125 -0.28969,-1.96178 -0.32423,-2.37455 -0.31328,-3.74367 0.004,-0.54321 -0.17292,-0.7632 -0.78765,-0.9775 -0.56069,-0.19545 -0.74658,-0.39818 -0.63403,-0.69146 0.0876,-0.22822 0.007,-0.59867 -0.17962,-0.82322 -0.23898,-0.28795 -0.32065,-1.25852 -0.27711,-3.29332 0.0516,-2.41249 -0.0261,-3.08364 -0.47465,-4.0976 -0.90902,-2.055 -0.94893,-2.84657 -0.22343,-4.43128 0.72158,-1.57613 0.37879,-2.52538 -1.07133,-2.96674 -0.46427,-0.1413 -0.56601,-0.31173 -0.43413,-0.72725 0.1045,-0.32923 -0.0644,-1.04793 -0.42935,-1.82714 -0.55312,-1.18092 -0.57306,-1.37536 -0.24748,-2.41253 0.37616,-1.19824 0.79129,-1.87285 0.79129,-1.28588 0,0.19367 0.4101,-0.0152 0.93524,-0.47625 0.95561,-0.83903 1.44601,-1.02779 1.44601,-0.55658 0,0.14553 0.36421,0.26459 0.80936,0.26459 0.47221,0 0.74125,0.11022 0.64585,0.26458 -0.21231,0.34353 0.0344,0.33557 0.70389,-0.0227 0.47463,-0.25401 0.51652,-0.22337 0.36165,0.26459 -0.1336,0.42092 -0.0611,0.55236 0.30569,0.55394 0.4623,0.002 1.14231,1.05593 1.14231,1.77047 0,1.1905 1.0971,-0.24279 2.3694,-3.09546 0.48677,-1.0914 1.34341,-2.77905 1.90365,-3.75033 0.56024,-0.97127 1.018618,-1.87571 1.018618,-2.00987 0,-1.10584 4.57973,-6.17006 5.10488,-5.64492 0.21377,0.21378 0.20706,0.37818 -0.0249,0.61012 -0.47411,0.47411 -0.38428,0.70876 0.21166,0.55292 0.6881,-0.17994 0.67093,0.13521 -0.0491,0.90168 -0.5783,0.61558 -0.5783,0.61558 0.33073,0.43545 1.23573,-0.24486 0.64298,0.549 -0.61825,0.82801 -0.53391,0.11811 -0.70522,0.24217 -0.45709,0.331 1.55833,0.55787 1.40369,1.53361 -0.16667,1.05165 -1.15291,-0.35384 -1.72412,0.0625 -1.21164,0.88308 0.26994,0.43224 0.24985,0.6452 -0.11314,1.19919 -0.44137,0.67362 -0.44137,0.67362 0.3266,0.48227 0.66402,-0.16545 0.72352,-0.13735 0.43954,0.20761 -0.18063,0.21943 -0.24962,0.47777 -0.15329,0.57409 0.0963,0.0963 -0.10078,0.46884 -0.43801,0.8278 -0.49418,0.52603 -0.55104,0.72748 -0.2931,1.03828 0.25238,0.3041 0.23779,0.54469 -0.069,1.13792 -0.29129,0.56329 -0.3316,1.05002 -0.16044,1.93724 0.61514,3.18873 0.43009,3.9174 -1.61569,6.36196 -2.488638,2.97375 -2.732438,3.46666 -2.534578,5.1243 0.67671,5.66939 1.540358,9.3531 2.518308,10.74133 0.55927,0.79389 1.08497,2.13857 1.60006,4.09277 0.42193,1.60073 0.89706,3.24719 1.05586,3.6588 0.15879,0.41161 0.27081,1.24504 0.24894,1.85208 -0.0246,0.68287 0.41838,2.51605 1.16181,4.80787 0.66087,2.03729 1.41632,4.63544 1.67877,5.77366 0.31695,1.37457 0.63713,2.1551 0.9535,2.32441 0.31164,0.16679 0.47632,0.55815 0.47632,1.13196 0,1.15729 1.27535,2.90309 2.62305,3.59064 1.10913,0.56583 1.4894,1.25514 1.24019,2.24806 -0.31285,1.24649 -3.36159,0.99942 -4.79352,-0.38847 -0.44809,-0.4343 -0.94125,-0.78964 -1.09592,-0.78964 -0.15466,0 -0.72331,-0.30002 -1.26367,-0.66671 -0.82075,-0.55698 -0.96048,-0.58965 -0.84889,-0.19844 0.0735,0.25755 0.26833,1.14835 0.43304,1.97955 0.23544,1.18815 0.55048,1.79046 1.47343,2.817 1.95125,2.17026 0.64698,3.52586 -2.20133,2.28795 z m 0.84211,-9.3063 c 0.0931,-0.24261 0.0463,-0.56408 -0.10398,-0.71437 -0.15029,-0.1503 -0.27588,-0.6364 -0.27907,-1.08024 -0.006,-0.79871 -0.95619,-3.24046 -1.17584,-3.02082 -0.1704,0.17041 0.36313,3.97539 0.6536,4.66124 0.2984,0.70457 0.66981,0.76783 0.90529,0.15419 z m -5.053658,-44.6114 c 0.304708,-0.4009 0.451178,-0.96102 0.396868,-1.51766 -0.0777,-0.79611 -2.599618,2.18121 -2.599618,3.06903 0,0.29836 1.71474,-0.90931 2.20275,-1.55137 z m 11.510738,-18.71916 c -4.0834,-2.15703 -2.74596,-8.482832 1.88762,-8.928062 4.12909,-0.39675 6.78123,4.457152 4.21674,7.717372 -1.31301,1.66922 -4.1654,2.23494 -6.10436,1.21069 z"
         id="path1" /><g
         id="g1"
         transform="matrix(0.047478,0,0,0.03916213,115.87983,99.914771)"
         style="fill:none;stroke:#000000;stroke-width:16.2337;stroke-dasharray:none;stroke-opacity:1"><path
           class="st0"
           d="M 121,321.5"
           id="path1-3"
           style="fill:none;stroke:#000000;stroke-width:16.2337;stroke-dasharray:none;stroke-opacity:1" /><line
           class="st1"
           x1="419"
           y1="325.5"
           x2="101"
           y2="325.5"
           id="line1"
           style="fill:none;stroke:#000000;stroke-width:16.2337;stroke-dasharray:none;stroke-opacity:1" /><line
           class="st1"
           x1="419"
           y1="362.5"
           x2="128"
           y2="362.5"
           id="line2"
           style="fill:none;stroke:#000000;stroke-width:16.2337;stroke-dasharray:none;stroke-opacity:1" /><path
           class="st1"
           d="M 419,211.5 H 218 l -0.3,-0.2 c -14.4,0 -26,-11.6 -26,-26 0,-14.4 11.6,-26 26,-26 6.4,0 12.3,2.3 16.8,6.2"
           id="path2"
           style="fill:none;stroke:#000000;stroke-width:16.2337;stroke-dasharray:none;stroke-opacity:1" /><path
           class="st1"
           d="m 419,249.5 -264.3,-0.2 c -14.4,0 -26,-11.6 -26,-26 0,-14.4 11.6,-26 26,-26 6.4,0 12.3,2.3 16.8,6.2"
           id="path3"
           style="fill:none;stroke:#000000;stroke-width:16.2337;stroke-dasharray:none;stroke-opacity:1" /><path
           class="st1"
           d="M 419,287.5 91.7,287.3 c -14.4,0 -26,-11.6 -26,-26 0,-14.4 11.6,-26 26,-26 6.4,0 12.3,2.3 16.8,6.2"
           id="path4"
           style="fill:none;stroke:#000000;stroke-width:16.2337;stroke-dasharray:none;stroke-opacity:1" /></g></g></g><style
     type="text/css"
     id="style1">
	.st0{fill:none;stroke:#000000;stroke-width:15;stroke-miterlimit:10;}
	.st1{fill:none;stroke:#000000;stroke-width:15;stroke-linecap:round;stroke-miterlimit:10;}
</style></svg>
